<?xml version="1.0" encoding="UTF-8"?>
<svg id="Layer_1" data-name="Layer 1" xmlns="http://www.w3.org/2000/svg" viewBox="0 0 263.78 152.98">
  <defs>
    <style>
      .cls-1 {
        font-family: Arial-BoldMT, Arial;
        font-weight: 700;
      }

      .cls-1, .cls-2 {
        font-size: 12px;
      }

      .cls-1, .cls-2, .cls-3 {
        fill: #231f20;
      }

      .cls-4 {
        fill: #fde5e7;
      }

      .cls-4, .cls-5, .cls-6, .cls-7, .cls-8, .cls-9 {
        stroke: #231f20;
        stroke-miterlimit: 10;
      }

      .cls-5 {
        fill: #fce4ef;
      }

      .cls-6 {
        fill: #fbf1e3;
      }

      .cls-7 {
        fill: #e7f6fd;
      }

      .cls-8 {
        fill: #e8f3e6;
      }

      .cls-2 {
        font-family: ArialMT, Arial;
      }

      .cls-9 {
        fill: none;
      }

      .cls-3 {
        stroke-width: 0px;
      }
    </style>
  </defs>
  <rect class="cls-7" x="161.78" y="105.08" width="47.39" height="20.34" rx="3.6" ry="3.6"/>
  <rect class="cls-7" x="161.78" y="132.14" width="47.39" height="20.34" rx="3.6" ry="3.6"/>
  <rect class="cls-5" x="54.01" y=".63" width="34.75" height="20.67" rx="4.46" ry="4.46"/>
  <rect class="cls-8" x="116.13" y=".5" width="86.26" height="20.67" rx="4.46" ry="4.46"/>
  <rect class="cls-4" x="73.81" y="71.2" width="74.03" height="20.34" rx="3.6" ry="3.6"/>
  <rect class="cls-7" x="73.81" y="115.25" width="34.68" height="20.34" rx="3.6" ry="3.6"/>
  <rect class="cls-7" x="215.89" y="105.08" width="47.39" height="20.34" rx="3.6" ry="3.6"/>
  <rect class="cls-7" x="215.89" y="132.14" width="47.39" height="20.34" rx="3.6" ry="3.6"/>
  <rect class="cls-7" x="113.16" y="115.25" width="34.68" height="20.34" rx="3.6" ry="3.6"/>
  <rect class="cls-6" x="73.81" y="40.6" width="74.03" height="20.34" rx="3.6" ry="3.6"/>
  <rect class="cls-4" x="161.78" y="71.2" width="101.5" height="20.34" rx="3.6" ry="3.6"/>
  <rect class="cls-6" x="161.78" y="40.6" width="101.5" height="20.34" rx="3.6" ry="3.6"/>
  <text class="cls-2" transform="translate(124.26 15.36)"><tspan x="0" y="0">API Gateway</tspan></text>
  <text class="cls-2" transform="translate(58.64 15.49)"><tspan x="0" y="0">User</tspan></text>
  <text class="cls-2" transform="translate(81.14 128.94)"><tspan x="0" y="0">add</tspan></text>
  <text class="cls-2" transform="translate(80.14 54.29)"><tspan x="0" y="0">add service</tspan></text>
  <text class="cls-2" transform="translate(171.52 54.29)"><tspan x="0" y="0">multiply service</tspan></text>
  <text class="cls-1" transform="translate(2.55 54.29)"><tspan x="0" y="0">producer</tspan></text>
  <text class="cls-1" transform="translate(4.15 77.69)"><tspan x="0" y="0">message</tspan><tspan x="8.02" y="14.4">queue</tspan></text>
  <text class="cls-1" transform="translate(0 128.94)"><tspan x="0" y="0">consumer</tspan></text>
  <text class="cls-2" transform="translate(120.49 128.94)"><tspan x="0" y="0">add</tspan></text>
  <text class="cls-2" transform="translate(80.79 84.89)"><tspan x="0" y="0">queue_add</tspan></text>
  <text class="cls-2" transform="translate(172.17 84.89)"><tspan x="0" y="0">queue_multiply</tspan></text>
  <text class="cls-2" transform="translate(165.13 146.83)"><tspan x="0" y="0">multiply</tspan></text>
  <text class="cls-2" transform="translate(219.24 119.77)"><tspan x="0" y="0">multiply</tspan></text>
  <text class="cls-2" transform="translate(165.13 119.77)"><tspan x="0" y="0">multiply</tspan></text>
  <text class="cls-2" transform="translate(219.24 146.83)"><tspan x="0" y="0">multiply</tspan></text>
  <g>
    <line class="cls-9" x1="88.76" y1="10.84" x2="112.6" y2="10.84"/>
    <polygon class="cls-3" points="116.13 10.84 111.16 12.87 112.34 10.84 111.16 8.8 116.13 10.84"/>
  </g>
  <g>
    <line class="cls-9" x1="159.26" y1="21.3" x2="116.42" y2="39.24"/>
    <polygon class="cls-3" points="113.16 40.6 116.96 36.8 116.66 39.14 118.53 40.55 113.16 40.6"/>
  </g>
  <g>
    <line class="cls-9" x1="159.26" y1="21.3" x2="212.55" y2="39.46"/>
    <polygon class="cls-3" points="215.89 40.6 210.52 40.92 212.3 39.38 211.83 37.07 215.89 40.6"/>
  </g>
  <g>
    <line class="cls-9" x1="110.82" y1="91.54" x2="93.4" y2="112.53"/>
    <polygon class="cls-3" points="91.15 115.25 92.76 110.12 93.57 112.33 95.89 112.72 91.15 115.25"/>
  </g>
  <g>
    <line class="cls-9" x1="212.53" y1="91.54" x2="190.68" y2="103.4"/>
    <polygon class="cls-3" points="187.57 105.08 190.98 100.92 190.91 103.27 192.92 104.49 187.57 105.08"/>
  </g>
  <g>
    <line class="cls-9" x1="110.82" y1="91.54" x2="130.28" y2="112.65"/>
    <polygon class="cls-3" points="132.67 115.25 127.8 112.97 130.1 112.46 130.79 110.21 132.67 115.25"/>
  </g>
  <g>
    <line class="cls-9" x1="212.53" y1="91.54" x2="236.43" y2="103.5"/>
    <polygon class="cls-3" points="239.58 105.08 234.22 104.67 236.19 103.38 236.04 101.04 239.58 105.08"/>
  </g>
  <g>
    <line class="cls-9" x1="108.49" y1="60.94" x2="108.49" y2="67.67"/>
    <polygon class="cls-3" points="108.49 71.2 106.45 66.23 108.49 67.41 110.52 66.23 108.49 71.2"/>
  </g>
  <g>
    <line class="cls-9" x1="212.53" y1="91.54" x2="209.43" y2="132.22"/>
    <polygon class="cls-3" points="209.17 135.74 207.52 130.62 209.45 131.95 211.57 130.93 209.17 135.74"/>
  </g>
  <g>
    <line class="cls-9" x1="212.53" y1="60.94" x2="212.53" y2="68.22"/>
    <polygon class="cls-3" points="212.53 71.75 210.49 66.78 212.53 67.96 214.56 66.78 212.53 71.75"/>
  </g>
  <g>
    <line class="cls-9" x1="212.53" y1="91.54" x2="215.62" y2="132.22"/>
    <polygon class="cls-3" points="215.89 135.74 213.48 130.93 215.6 131.95 217.54 130.62 215.89 135.74"/>
  </g>
</svg>